<?xml version="1.0" encoding="UTF-8"?>
<svg width="512" height="512" version="1.1" viewBox="0 0 135.47 135.47" xmlns="http://www.w3.org/2000/svg">
 <g transform="translate(0 -161.53)">
  <circle cx="67.733" cy="229.27" r="67.733" fill="#4f46e5"/>
  <g fill="#fff" stroke-width=".26458" aria-label="GJ">
   <path d="m77.936 208.83q4.7625 0 8.4667 1.7198 3.7042 1.7198 5.7150 4.7625l-4.2333 3.1750q-3.1750-4.2333-9.9483-4.2333-5.0800 0-8.1492 3.1750-3.0692 3.1750-3.0692 8.4667 0 5.0800 3.0692 8.2550 3.0692 3.1750 8.1492 3.1750 4.2333 0 6.8792-1.8256v-5.9267h-7.9375v-4.7625h13.229v13.229q-2.3550 2.2492-5.6092 3.3867-3.2808 1.1377-6.5617 1.1377-7.4083 0-12.277-4.6567-4.8683-4.6567-4.8683-12.383 0-7.7258 4.8683-12.383 4.8683-4.6567 12.277-4.6567z"/>
   <path d="m102.66 208.83h5.8208v25.294q0 4.4450-2.6725 6.9850-2.6725 2.5400-7.5142 2.5400-1.4023 0-2.9633-0.21167-1.5610-0.21166-2.8575-0.63499v-5.0800q1.4023 0.42333 2.7517 0.63500 1.3494 0.21166 2.5400 0.21166 2.6725 0 3.9158-1.2435 1.2435-1.2435 1.2435-3.8100v-19.685z"/>
  </g>
 </g>
</svg>